<svg width="72" height="73" viewBox="0 0 72 73" fill="none" xmlns="http://www.w3.org/2000/svg">
<path d="M70.5938 3.62891H1.40625C0.629578 3.62891 0 4.25863 0 5.03516V68.5889C0 69.3655 0.629578 69.9952 1.40625 69.9952H15.0469C15.8235 69.9952 16.4531 69.3655 16.4531 68.5889C16.4531 67.8124 15.8235 67.1827 15.0469 67.1827H2.8125V16.5592C2.85891 16.5639 2.90602 16.5664 2.95369 16.5664H69.1875V67.1827H66.6861V61.107C66.6861 58.3616 64.9351 55.9366 62.3291 55.0733L57.3667 53.4289C57.9724 52.7162 58.4667 51.9067 58.8233 51.0267H63.002C63.7786 51.0267 64.4082 50.397 64.4082 49.6205V45.6541C64.4082 38.0623 58.2318 31.8858 50.6399 31.8858C43.048 31.8858 36.8716 38.0623 36.8716 45.6541V49.6205C36.8716 50.397 37.5012 51.0267 38.2778 51.0267H42.4565C42.8133 51.9067 43.3074 52.7162 43.9131 53.4289L38.9507 55.0733C36.3447 55.9366 34.5938 58.3614 34.5938 61.1068V67.1825H28.0529C27.2762 67.1825 26.6466 67.8123 26.6466 68.5888C26.6466 69.3653 27.2762 69.995 28.0529 69.995H36H65.2798H70.5938C71.3704 69.995 72 69.3653 72 68.5888V5.03516C72 4.25848 71.3704 3.62891 70.5938 3.62891ZM61.5957 48.2141H59.4533C59.4623 48.0508 59.4678 47.8865 59.4678 47.721V45.7849C59.4678 45.7718 59.4668 45.759 59.4668 45.7461H61.5957V48.2141ZM39.6841 48.2141V45.7461H41.813C41.813 45.7592 41.812 45.772 41.812 45.7849V47.721C41.812 47.8865 41.8175 48.0508 41.8265 48.2141H39.6841ZM42.2872 42.9335H40.0262C41.2391 38.2041 45.5376 34.698 50.6399 34.698C55.7422 34.698 60.0407 38.2041 61.2536 42.9335H58.9926C57.8039 39.4611 54.5099 36.9569 50.6399 36.9569C46.7699 36.9569 43.4759 39.4611 42.2872 42.9335ZM50.6399 47.5507C49.8632 47.5507 49.2337 48.1805 49.2337 48.957V50.4102C49.2337 51.1867 49.8632 51.8165 50.6399 51.8165H55.0403C54.7213 52.159 54.3634 52.4647 53.9729 52.7256C53.8805 52.7706 53.7931 52.8256 53.7124 52.8898C52.8124 53.4268 51.7618 53.7364 50.6399 53.7364C49.518 53.7364 48.4675 53.4269 47.5677 52.89C47.4868 52.8257 47.3993 52.7706 47.3067 52.7254C45.691 51.6457 44.6245 49.8058 44.6245 47.721V45.7849C44.6245 42.468 47.323 39.7695 50.6399 39.7695C53.9568 39.7695 56.6553 42.468 56.6553 45.7849V47.721C56.6553 48.1613 56.6063 48.5902 56.5162 49.004H52.0462V48.957C52.0462 48.1805 51.4166 47.5507 50.6399 47.5507ZM63.8734 67.1825H37.4062V61.1068C37.4062 59.5761 38.3825 58.2243 39.8354 57.7428L46.5228 55.5266C47.753 56.1781 49.1536 56.5488 50.6399 56.5488C52.1262 56.5488 53.5268 56.1781 54.757 55.5266L61.4444 57.7428C62.8973 58.2243 63.8734 59.5761 63.8734 61.1068V67.1825ZM69.1875 13.7539H2.95369C2.90602 13.7539 2.85891 13.7564 2.8125 13.7611V6.44141H69.1875V13.7539Z" fill="#086CF9"/>
<path d="M22.7181 67.5956C22.4565 67.3328 22.0937 67.1836 21.7239 67.1836C21.3526 67.1836 20.9912 67.3328 20.7297 67.5956C20.4667 67.8572 20.3176 68.22 20.3176 68.5898C20.3176 68.9597 20.4667 69.3225 20.7297 69.5841C20.9912 69.8455 21.3526 69.9961 21.7239 69.9961C22.0937 69.9961 22.4565 69.8456 22.7181 69.5841C22.9797 69.3225 23.1301 68.9597 23.1301 68.5898C23.1301 68.22 22.9797 67.8572 22.7181 67.5956Z" fill="#086CF9"/>
<path d="M63.0001 8.69141H31.228C30.4514 8.69141 29.8218 9.32113 29.8218 10.0977C29.8218 10.8742 30.4514 11.5039 31.228 11.5039H63.0001C63.7768 11.5039 64.4064 10.8742 64.4064 10.0977C64.4064 9.32113 63.7768 8.69141 63.0001 8.69141Z" fill="#086CF9"/>
<path d="M15.6192 9.10441C15.3577 8.84271 14.9948 8.69238 14.625 8.69238C14.2552 8.69238 13.8923 8.84271 13.6308 9.10441C13.3692 9.36584 13.2188 9.72865 13.2188 10.0986C13.2188 10.4685 13.3692 10.8313 13.6308 11.0927C13.8923 11.3543 14.2552 11.5049 14.625 11.5049C14.9948 11.5049 15.3577 11.3544 15.6192 11.0927C15.8808 10.8313 16.0312 10.4685 16.0312 10.0986C16.0312 9.72865 15.8808 9.36584 15.6192 9.10441Z" fill="#086CF9"/>
<path d="M9.99422 9.10441C9.73266 8.84271 9.36984 8.69238 9 8.69238C8.63016 8.69238 8.26734 8.84271 8.00578 9.10441C7.74422 9.36584 7.59375 9.72865 7.59375 10.0986C7.59375 10.4685 7.74422 10.8313 8.00578 11.0927C8.26734 11.3543 8.63016 11.5049 9 11.5049C9.36984 11.5049 9.73266 11.3544 9.99422 11.0927C10.2558 10.8313 10.4062 10.4685 10.4062 10.0986C10.4062 9.72865 10.2558 9.36584 9.99422 9.10441Z" fill="#086CF9"/>
<path d="M21.2442 9.10441C20.9827 8.84271 20.6198 8.69238 20.25 8.69238C19.8802 8.69238 19.5173 8.84271 19.2558 9.10441C18.9942 9.36584 18.8438 9.72865 18.8438 10.0986C18.8438 10.4685 18.9942 10.8313 19.2558 11.0927C19.5173 11.3543 19.8802 11.5049 20.25 11.5049C20.6198 11.5049 20.9827 11.3544 21.2442 11.0927C21.5058 10.8313 21.6562 10.4685 21.6562 10.0986C21.6562 9.72865 21.5058 9.36584 21.2442 9.10441Z" fill="#086CF9"/>
<path d="M30.1428 20.2227H13.3073C10.1568 20.2227 7.59375 22.7858 7.59375 25.9364V37.5714C7.59375 40.722 10.1569 43.2852 13.3073 43.2852H30.1427C33.2933 43.2852 35.8564 40.722 35.8564 37.5714V25.9364C35.8564 22.7858 33.2932 20.2227 30.1428 20.2227ZM30.1428 40.4727H13.3073C11.7077 40.4727 10.4062 39.1712 10.4062 37.5714V25.9364C10.4062 24.3366 11.7077 23.0352 13.3073 23.0352H30.1427C31.7423 23.0352 33.0438 24.3366 33.0438 25.9364V37.5714H33.0439C33.0439 39.1712 31.7424 40.4727 30.1428 40.4727Z" fill="#086CF9"/>
<path d="M25.9277 29.3914L20.5523 25.9459C19.6881 25.392 18.5915 25.3537 17.6906 25.8462C16.7898 26.3388 16.2302 27.2825 16.2302 28.3093V35.2002C16.2302 36.2269 16.7898 37.1706 17.6906 37.6632C18.1114 37.8933 18.5749 38.0075 19.0374 38.0075C19.5651 38.0075 20.0918 37.8587 20.5523 37.5635L25.9277 34.1181C26.7369 33.5994 27.2201 32.7159 27.2201 31.7547C27.2201 30.7935 26.7367 29.91 25.9277 29.3914ZM19.0427 35.1898L19.0431 28.3192L24.4027 31.7548L19.0427 35.1898Z" fill="#086CF9"/>
<path d="M19.3351 53.9727H9C8.22333 53.9727 7.59375 54.6024 7.59375 55.3789C7.59375 56.1554 8.22333 56.7852 9 56.7852H19.3351C20.1118 56.7852 20.7413 56.1554 20.7413 55.3789C20.7413 54.6024 20.1118 53.9727 19.3351 53.9727Z" fill="#086CF9"/>
<path d="M29.6459 53.9727H25.75C24.9733 53.9727 24.3438 54.6024 24.3438 55.3789C24.3438 56.1554 24.9733 56.7852 25.75 56.7852H29.6459C30.4225 56.7852 31.0521 56.1554 31.0521 55.3789C31.0521 54.6024 30.4225 53.9727 29.6459 53.9727Z" fill="#086CF9"/>
<path d="M23.82 47.2227H9C8.22333 47.2227 7.59375 47.8524 7.59375 48.6289C7.59375 49.4054 8.22333 50.0352 9 50.0352H23.82C24.5967 50.0352 25.2263 49.4054 25.2263 48.6289C25.2263 47.8524 24.5967 47.2227 23.82 47.2227Z" fill="#086CF9"/>
<path d="M30.6912 47.6347C30.4297 47.3731 30.0669 47.2227 29.697 47.2227C29.3258 47.2227 28.9644 47.373 28.7028 47.6347C28.4412 47.8961 28.2908 48.2589 28.2908 48.6289C28.2908 48.9987 28.4412 49.3616 28.7028 49.623C28.9644 49.8845 29.3258 50.0352 29.697 50.0352C30.0669 50.0352 30.4297 49.8847 30.6912 49.623C30.9528 49.3616 31.1033 48.9987 31.1033 48.6289C31.1033 48.2591 30.9528 47.8963 30.6912 47.6347Z" fill="#086CF9"/>
<path d="M29.6438 60.7227H9C8.22333 60.7227 7.59375 61.3524 7.59375 62.1289C7.59375 62.9054 8.22333 63.5352 9 63.5352H29.6438C30.4204 63.5352 31.05 62.9054 31.05 62.1289C31.05 61.3524 30.4204 60.7227 29.6438 60.7227Z" fill="#086CF9"/>
</svg>
