<svg width="72" height="64" viewBox="0 0 72 64" fill="none" xmlns="http://www.w3.org/2000/svg">
<path d="M66.2344 32.7706C69.461 32.4848 72 29.7685 72 26.4688V6.78125C72 3.29192 69.1612 0.453125 65.6719 0.453125H44.7188C41.2294 0.453125 38.3906 3.29192 38.3906 6.78125V15.0781H12.0938C8.60442 15.0781 5.76562 17.9169 5.76562 21.4062V46.7188C5.76562 47.4582 5.8943 48.1679 6.12844 48.8281H3.79688C1.70325 48.8281 0 50.5314 0 52.625C0 58.4405 4.73133 63.1719 10.5469 63.1719H61.4531C67.2687 63.1719 72 58.4405 72 52.625C72 50.5314 70.2968 48.8281 68.2031 48.8281H65.8716C66.1057 48.1679 66.2344 47.4582 66.2344 46.7188V32.7706ZM42.6094 6.78125C42.6094 5.61814 43.5556 4.67188 44.7188 4.67188H65.6719C66.835 4.67188 67.7812 5.61814 67.7812 6.78125V26.4688C67.7812 27.6319 66.835 28.5781 65.6719 28.5781H46.125C45.7296 28.5781 45.3423 28.6892 45.007 28.8988L40.754 31.557L42.5205 25.6686C42.5794 25.472 42.6094 25.2678 42.6094 25.0625V6.78125ZM61.4531 58.9531H10.5469C7.1993 58.9531 4.45064 56.3402 4.23267 53.0469H67.7673C67.5494 56.3402 64.8007 58.9531 61.4531 58.9531ZM20.1094 32.9375C20.1094 31.6193 21.1818 30.5469 22.5 30.5469C23.8182 30.5469 24.8906 31.6193 24.8906 32.9375C24.8906 34.2557 23.8182 35.3281 22.5 35.3281C21.1818 35.3281 20.1094 34.2557 20.1094 32.9375ZM18.9844 41.9375C18.9844 40.664 20.6272 39.5469 22.5 39.5469C23.5043 39.5469 24.472 39.8602 25.1549 40.4065C25.4765 40.6637 26.0156 41.2046 26.0156 41.9375V48.8281H18.9844V41.9375ZM30.2344 48.8281V41.9375C30.2344 40.1136 29.3437 38.3548 27.7903 37.1122C27.7554 37.0843 27.719 37.0581 27.6836 37.0308C28.5751 35.9041 29.1094 34.4824 29.1094 32.9375C29.1094 29.2931 26.1444 26.3281 22.5 26.3281C18.8556 26.3281 15.8906 29.2931 15.8906 32.9375C15.8906 34.4842 16.4261 35.9072 17.3194 37.0345C15.7523 38.2448 14.7656 39.9945 14.7656 41.9375V48.8281H12.0938C10.9306 48.8281 9.98438 47.8819 9.98438 46.7188V21.4062C9.98438 20.2431 10.9306 19.2969 12.0938 19.2969H38.3906V24.753L36.7131 30.3447C36.2036 32.0428 36.7851 33.8353 38.1946 34.9108C38.9538 35.4901 39.85 35.7829 40.7505 35.7829C41.5216 35.7829 42.2961 35.568 42.9896 35.1345L46.73 32.7969H62.0156V46.7188C62.0156 47.8819 61.0694 48.8281 59.9062 48.8281H30.2344Z" fill="#086CF9"/>
<path d="M57.375 19.5781H52.875C51.7101 19.5781 50.7656 20.5226 50.7656 21.6875C50.7656 22.8524 51.7101 23.7969 52.875 23.7969H57.375C58.5399 23.7969 59.4844 22.8524 59.4844 21.6875C59.4844 20.5226 58.5399 19.5781 57.375 19.5781Z" fill="#086CF9"/>
<path d="M49.5 13.6719H60.75C61.9149 13.6719 62.8594 12.7274 62.8594 11.5625C62.8594 10.3976 61.9149 9.45312 60.75 9.45312H49.5C48.3351 9.45312 47.3906 10.3976 47.3906 11.5625C47.3906 12.7274 48.3351 13.6719 49.5 13.6719Z" fill="#086CF9"/>
</svg>
