<svg width="80" height="80" viewBox="0 0 80 80" fill="none" xmlns="http://www.w3.org/2000/svg">
<g clip-path="url(#clip0_47446_131)">
<path d="M24.6347 16.0333C23.943 16.0333 23.382 16.5941 23.382 17.286C23.382 18.8055 22.1458 20.0418 20.6262 20.0418C19.1067 20.0418 17.8705 18.8055 17.8705 17.286C17.8705 15.7665 19.1067 14.5302 20.6262 14.5302C21.318 14.5302 21.8789 13.9694 21.8789 13.2776C21.8789 12.5857 21.3181 12.0249 20.6262 12.0249C17.7253 12.0249 15.3653 14.3851 15.3653 17.2858C15.3653 20.1866 17.7255 22.5468 20.6262 22.5468C23.527 22.5468 25.8872 20.1866 25.8872 17.2858C25.8873 16.5941 25.3264 16.0333 24.6347 16.0333Z" fill="#086CF9"/>
<path d="M24.6347 30.7306C23.943 30.7306 23.382 31.2914 23.382 31.9833C23.382 33.5028 22.1458 34.739 20.6262 34.739C19.1067 34.739 17.8705 33.5028 17.8705 31.9833C17.8705 30.4637 19.1067 29.2275 20.6262 29.2275C21.318 29.2275 21.8789 28.6667 21.8789 27.9748C21.8789 27.2829 21.3181 26.7222 20.6262 26.7222C17.7253 26.7222 15.3653 29.0823 15.3653 31.9831C15.3653 34.8839 17.7255 37.244 20.6262 37.244C23.527 37.244 25.8872 34.8839 25.8872 31.9831C25.8873 31.2915 25.3264 30.7306 24.6347 30.7306Z" fill="#086CF9"/>
<path d="M39.3318 33.4028H29.979C29.2873 33.4028 28.7264 33.9636 28.7264 34.6555C28.7264 35.3474 29.2872 35.9081 29.979 35.9081H39.3318C40.0236 35.9081 40.5845 35.3474 40.5845 34.6555C40.5845 33.9636 40.0237 33.4028 39.3318 33.4028Z" fill="#086CF9"/>
<path d="M39.3318 28.0586H29.979C29.2873 28.0586 28.7264 28.6194 28.7264 29.3112C28.7264 30.0031 29.2872 30.5639 29.979 30.5639H39.3318C40.0236 30.5639 40.5845 30.0031 40.5845 29.3112C40.5845 28.6194 40.0237 28.0586 39.3318 28.0586Z" fill="#086CF9"/>
<path d="M36.6597 48.1001H29.979C29.2873 48.1001 28.7264 48.6609 28.7264 49.3528C28.7264 50.0446 29.2872 50.6054 29.979 50.6054H36.6597C37.3514 50.6054 37.9123 50.0446 37.9123 49.3528C37.9123 48.6609 37.3514 48.1001 36.6597 48.1001Z" fill="#086CF9"/>
<path d="M39.3318 42.7559H29.979C29.2873 42.7559 28.7264 43.3166 28.7264 44.0085C28.7264 44.7004 29.2872 45.2612 29.979 45.2612H39.3318C40.0236 45.2612 40.5845 44.7004 40.5845 44.0085C40.5845 43.3166 40.0237 42.7559 39.3318 42.7559Z" fill="#086CF9"/>
<path d="M51.357 18.7056H29.979C29.2873 18.7056 28.7264 19.2663 28.7264 19.9582C28.7264 20.6501 29.2872 21.2109 29.979 21.2109H51.3568C52.0486 21.2109 52.6095 20.6501 52.6095 19.9582C52.6095 19.2663 52.0487 18.7056 51.357 18.7056Z" fill="#086CF9"/>
<path d="M46.0125 13.3613H29.979C29.2873 13.3613 28.7264 13.9221 28.7264 14.614C28.7264 15.3059 29.2872 15.8666 29.979 15.8666H46.0125C46.7042 15.8666 47.2651 15.3059 47.2651 14.614C47.2651 13.9221 46.7044 13.3613 46.0125 13.3613Z" fill="#086CF9"/>
<path d="M24.6347 45.4279C23.943 45.4279 23.382 45.9887 23.382 46.6805C23.382 48.2001 22.1458 49.4363 20.6262 49.4363C19.1067 49.4363 17.8705 48.2001 17.8705 46.6805C17.8705 45.161 19.1067 43.9247 20.6262 43.9247C21.318 43.9247 21.8789 43.364 21.8789 42.6721C21.8789 41.9802 21.3181 41.4194 20.6262 41.4194C17.7253 41.4194 15.3653 43.7796 15.3653 46.6804C15.3653 49.5812 17.7255 51.9413 20.6262 51.9413C23.527 51.9413 25.8872 49.5812 25.8872 46.6804C25.8873 45.9887 25.3264 45.4279 24.6347 45.4279Z" fill="#086CF9"/>
<path d="M56.7014 0H11.2734C9.10935 0 7.34857 1.76062 7.34857 3.92484V60.0417C7.34857 62.2059 9.1092 63.9666 11.2734 63.9666H33.9875C34.6792 63.9666 35.2401 63.4058 35.2401 62.7139C35.2401 62.0222 34.6794 61.4613 33.9875 61.4613H11.2734C10.4906 61.4613 9.85373 60.8244 9.85373 60.0416V3.92484C9.85373 3.14203 10.4906 2.50516 11.2734 2.50516H56.7014C57.4842 2.50516 58.1211 3.14203 58.1211 3.92484V45.3447C58.1211 46.0364 58.6819 46.5973 59.3737 46.5973C60.0654 46.5973 60.6264 46.0366 60.6264 45.3447V3.92484C60.6262 1.76062 58.8656 0 56.7014 0Z" fill="#086CF9"/>
<path d="M68.5278 50.7959C67.3636 50.6798 66.2 51.0098 65.2791 51.7091C64.5455 50.4781 63.2945 49.6048 61.8472 49.4598C60.6827 49.3439 59.5192 49.6739 58.5984 50.373C57.8648 49.142 56.6139 48.2688 55.1666 48.1238C54.2775 48.035 53.3897 48.2063 52.6095 48.6033V32.6514C52.6095 31.3563 52.0586 30.1147 51.0975 29.2452C50.1373 28.3764 48.8434 27.9524 47.5473 28.082C45.235 28.3136 43.4237 30.4044 43.4237 32.842V48.8342L39.7416 52.5164C37.7848 54.4731 36.995 57.2494 37.6289 59.9431L40.4244 71.8239C41.557 76.6381 45.8022 80.0003 50.7478 80.0003H62.0458C67.8936 80.0003 72.6512 75.2428 72.6512 69.3949V55.5563C72.6514 53.1183 70.8402 51.0275 68.5278 50.7959ZM70.1461 69.3945C70.1461 73.8609 66.5123 77.4947 62.0459 77.4947H50.748C46.9706 77.4947 43.7281 74.9267 42.863 71.2497L40.0675 59.3689C39.6338 57.5259 40.1742 55.6263 41.513 54.2875L43.4237 52.3767V56.7014C43.4237 57.3931 43.9845 57.9541 44.6764 57.9541C45.3683 57.9541 45.9291 57.3933 45.9291 56.7014V32.8419C45.9291 31.6755 46.7495 30.6795 47.7972 30.5749C48.3989 30.5144 48.9744 30.7022 49.4169 31.1028C49.8539 31.4983 50.1045 32.0628 50.1045 32.6516V54.6975C50.1045 55.3892 50.6653 55.9502 51.3572 55.9502C52.0491 55.9502 52.6098 55.3894 52.6098 54.6975V52.6933C52.6098 52.1045 52.8603 51.54 53.2975 51.1445C53.7403 50.7439 54.3155 50.5559 54.9172 50.6166C55.9647 50.7214 56.7853 51.7173 56.7853 52.8838V56.0333C56.7853 56.725 57.3461 57.2859 58.038 57.2859C58.7297 57.2859 59.2906 56.7252 59.2906 56.0333V54.0291C59.2906 53.4403 59.5411 52.8758 59.9783 52.4803C60.4211 52.0797 60.9964 51.8919 61.598 51.9523C62.6455 52.0572 63.4661 53.0531 63.4661 54.2195V57.3692C63.4661 58.0609 64.0269 58.6219 64.7188 58.6219C65.4105 58.6219 65.9714 58.0611 65.9714 57.3692V55.365C65.9714 54.7763 66.2219 54.2117 66.6591 53.8163C67.1019 53.4158 67.6767 53.2277 68.2788 53.2884C69.3263 53.3931 70.1469 54.3891 70.1469 55.5555V69.3945H70.1461Z" fill="#086CF9"/>
</g>
<defs>
<clipPath id="clip0_47446_131">
<rect width="80" height="80" fill="white"/>
</clipPath>
</defs>
</svg>
