<svg width="72" height="73" viewBox="0 0 72 73" fill="none" xmlns="http://www.w3.org/2000/svg">
<g clip-path="url(#clip0_28_740)">
<path d="M21.4645 26.1172L25.9456 30.5981L36 20.6937V24.8012H40.2353V13.5176H28.9517V17.7529H32.9503L25.968 24.6308L21.4645 20.1275L3.44897 38.1431L6.44375 41.1379L21.4645 26.1172Z" fill="#086CF9"/>
<path d="M12.7058 72.8122H21.1764C21.1764 71.4155 21.1764 48.9007 21.1764 47.4004H12.7058V72.8122Z" fill="#086CF9"/>
<path d="M25.4116 72.8131H33.8822C33.8822 71.4894 33.8822 45.1436 33.8822 43.166H25.4116V72.8131Z" fill="#086CF9"/>
<path d="M72.0003 21.989L64.0591 11.4007L72.0003 0.8125C70.5744 0.8125 45.777 0.8125 44.4709 0.8125V38.9301H38.1179V72.8125H55.0591V38.9301H48.7062V21.989H72.0003Z" fill="#086CF9"/>
<path d="M8.47059 51.6357H0V72.8122H8.47059C8.47059 71.8346 8.47059 52.6099 8.47059 51.6357Z" fill="#086CF9"/>
</g>
<defs>
<clipPath id="clip0_28_740">
<rect width="72" height="72" fill="white" transform="translate(0 0.8125)"/>
</clipPath>
</defs>
</svg>
