<svg width="80" height="80" viewBox="0 0 80 80" fill="none" xmlns="http://www.w3.org/2000/svg">
<g clip-path="url(#clip0_47446_180)">
<path d="M55.5335 80.0066C57.3409 80.0017 58.9224 78.7911 59.399 77.0479L63.085 63.286L77.0446 59.5542C79.1716 58.9758 80.431 56.7877 79.8642 54.6582L72.6263 27.6818L73.1993 25.5492C73.7173 23.5851 72.68 21.5447 70.7879 20.8052L67.5289 8.63952C66.9456 6.51428 64.763 5.25306 62.6305 5.80831L38.8239 12.1944L18.8615 6.84256C18.0433 6.61801 17.1744 6.665 16.3854 6.97619L11.3985 1.99778C9.71747 0.301501 7.25786 -0.366028 4.95018 0.248416C2.64251 0.862861 0.840057 2.6647 0.225002 4.97238C-0.390052 7.28005 0.276257 9.74027 1.97193 11.4213L11.0617 20.511L0.171307 61.1657C-0.398595 63.2976 0.862023 65.4887 2.99153 66.0684L54.4956 79.8681C54.8337 79.9602 55.1827 80.0072 55.5335 80.0066ZM77.285 55.3471C77.4735 56.0542 77.0568 56.7816 76.3514 56.9762L63.8831 60.3084L71.2424 32.8353L77.285 55.3471ZM63.3126 8.3863C63.6562 8.29233 64.0229 8.33992 64.331 8.51809C64.6392 8.69565 64.8631 8.98976 64.9534 9.33389L67.7968 19.9552L43.9732 13.5728L63.3126 8.3863ZM40.386 40.4167L33.6564 38.1737L38.143 33.6829L40.386 40.4118V40.4167ZM34.9609 33.102L23.6508 21.7906C23.1303 21.2701 22.2858 21.2701 21.7653 21.7912C21.2449 22.3117 21.2455 23.1561 21.7666 23.6766L33.0773 34.985L31.1931 36.8716L12.3412 18.0197L14.226 16.1349L17.9951 19.9058C18.3325 20.2426 18.8231 20.3744 19.2838 20.2505C19.7438 20.1272 20.1032 19.7679 20.2265 19.3078C20.3497 18.8477 20.2185 18.3565 19.8817 18.0197L16.1121 14.2501L17.9969 12.364L36.8458 31.2159L34.9609 33.102ZM8.57034 14.2501L14.226 8.59437L16.1109 10.4792L10.4564 16.1349L8.57034 14.2501ZM2.68644 6.70954C2.68644 5.09197 3.66089 3.63305 5.1552 3.01433C6.65013 2.39562 8.3702 2.73792 9.51367 3.882L12.3412 6.70954L6.68552 12.3652L3.85675 9.53647C3.10502 8.7884 2.68339 7.77063 2.68644 6.70954ZM2.74807 61.8655L13.2406 22.69L30.2492 39.6986C30.3883 39.8346 30.5555 39.9377 30.7398 40.0012C30.7501 40.0012 30.7581 40.0158 30.7703 40.0195L39.5507 42.952C39.8246 43.0423 40.112 43.0868 40.4006 43.0856C40.9028 43.0838 41.394 42.9392 41.8162 42.6683L57.145 46.7845C57.2579 46.8156 57.3744 46.8315 57.4916 46.8309C58.1609 46.8309 58.726 46.3348 58.8126 45.6715C58.8999 45.0083 58.4819 44.3835 57.8357 44.2108L43.0402 40.2386C43.0268 40.0122 42.9859 39.7882 42.9176 39.5716L39.9851 30.7906C39.9851 30.7784 39.9705 30.7705 39.965 30.7583C39.9015 30.5759 39.7984 30.4093 39.6635 30.2708L19.0617 9.66034L69.6749 23.2178C70.0172 23.3093 70.3089 23.5326 70.4858 23.8395C70.6628 24.1458 70.7104 24.5101 70.6189 24.8524L56.8253 76.3504C56.7344 76.6927 56.5104 76.985 56.2035 77.162C55.8966 77.3389 55.5317 77.3865 55.19 77.2944L3.6914 63.4996C3.3497 63.4081 3.05804 63.1847 2.88048 62.8784C2.70353 62.5715 2.65593 62.2072 2.74807 61.8655Z" fill="#086CF9"/>
<path d="M61.6344 31.375C62.3031 31.3744 62.8682 30.8784 62.9554 30.2151C63.0421 29.5524 62.6241 28.927 61.9785 28.7543L43.0198 23.6746C42.5549 23.5361 42.0521 23.6612 41.7061 24.0011C41.3602 24.3403 41.2259 24.8413 41.3553 25.3081C41.4846 25.7755 41.8581 26.1355 42.3291 26.2484L61.289 31.3293C61.4019 31.3598 61.5179 31.375 61.6344 31.375Z" fill="#086CF9"/>
<path d="M59.5629 39.1003C60.2316 39.0997 60.7967 38.6042 60.8839 37.941C60.9712 37.2777 60.5532 36.6529 59.907 36.4796L47.0171 33.0315C46.554 32.8997 46.0561 33.0272 45.7138 33.3665C45.3715 33.7051 45.2391 34.2024 45.3666 34.6668C45.4941 35.1311 45.8621 35.4905 46.3295 35.6064L59.2194 39.0551C59.331 39.085 59.447 39.1003 59.5629 39.1003Z" fill="#086CF9"/>
<path d="M18.4331 41.9245L14.5677 40.889C14.104 40.7535 13.603 40.8792 13.2589 41.2185C12.9147 41.5571 12.7805 42.0557 12.9086 42.5218C13.0368 42.9874 13.4065 43.3474 13.8758 43.4627L17.7412 44.5C17.8547 44.5299 17.9706 44.5452 18.0878 44.5452C18.7571 44.5458 19.3228 44.0497 19.41 43.3864C19.4973 42.7232 19.0793 42.0978 18.4331 41.9245Z" fill="#086CF9"/>
<path d="M56.7123 53.5597C56.9026 52.8488 56.4804 52.1191 55.7702 51.9281L26.156 43.9946C25.469 43.8604 24.7953 44.2814 24.6135 44.9575C24.4323 45.6335 24.8051 46.3352 25.4671 46.5628L55.0794 54.4969C55.1923 54.528 55.3083 54.5433 55.4248 54.5433C56.027 54.5439 56.5548 54.1406 56.7123 53.5597Z" fill="#086CF9"/>
<path d="M16.3612 49.6493L12.4958 48.6133C11.7862 48.4272 11.0594 48.8494 10.8697 49.5578C10.6799 50.2668 11.0991 50.996 11.8069 51.1888L15.6724 52.223C15.7846 52.2542 15.9006 52.27 16.0177 52.2694C16.6865 52.27 17.2521 51.774 17.3393 51.1107C17.4272 50.4474 17.0092 49.822 16.3625 49.6493H16.3612Z" fill="#086CF9"/>
<path d="M53.6993 59.655L24.087 51.7197C23.6221 51.5818 23.1193 51.7069 22.7733 52.0461C22.4274 52.386 22.2931 52.8863 22.4225 53.3537C22.5518 53.8205 22.9253 54.1805 23.3963 54.294L53.0092 62.2287C53.1221 62.2598 53.2387 62.2757 53.3558 62.2757C54.0246 62.2751 54.5896 61.779 54.6768 61.1157C54.7635 60.4525 54.3455 59.8277 53.6993 59.655Z" fill="#086CF9"/>
</g>
<defs>
<clipPath id="clip0_47446_180">
<rect width="80" height="80" fill="white"/>
</clipPath>
</defs>
</svg>
