<svg width="80" height="80" viewBox="0 0 80 80" fill="none" xmlns="http://www.w3.org/2000/svg">
<g clip-path="url(#clip0_47446_192)">
<path d="M76.7723 7.89014H56.6789C56.1345 5.21889 53.7672 3.20264 50.9375 3.20264H29.0625C26.2328 3.20264 23.8655 5.21889 23.3211 7.89014H3.22766C1.44797 7.89014 0 9.33795 0 11.1173V61.6837C0 63.4633 1.44797 64.9109 3.22766 64.9109H31.3548L29.7739 69.7681H26.4911C24.2473 69.7681 22.4217 71.5934 22.4217 73.837C22.4217 75.47 23.7505 76.7986 25.3836 76.7986H54.6161C56.2492 76.7986 57.578 75.4701 57.578 73.837C57.578 71.5934 55.7523 69.7681 53.5086 69.7681H50.2258L48.6448 64.9109H76.772C78.5519 64.9109 79.9997 63.4631 79.9997 61.6837V11.1173C80 9.33795 78.552 7.89014 76.7723 7.89014ZM44.6844 5.54639H50.9375C52.8759 5.54639 54.4531 7.12342 54.4531 9.06201C54.4531 11.0006 52.8759 12.5776 50.9375 12.5776H44.6844C45.4217 11.5976 45.8594 10.3801 45.8594 9.06201C45.8594 7.74389 45.4217 6.52639 44.6844 5.54639ZM40 5.54639C41.9384 5.54639 43.5156 7.12342 43.5156 9.06201C43.5156 11.0006 41.9384 12.5776 40 12.5776C38.0616 12.5776 36.4844 11.0006 36.4844 9.06201C36.4844 7.12342 38.0616 5.54639 40 5.54639ZM29.0625 5.54639H35.3156C34.5783 6.52639 34.1406 7.74389 34.1406 9.06201C34.1406 10.3801 34.5783 11.5976 35.3156 12.5776H29.0625C27.1241 12.5776 25.5469 11.0006 25.5469 9.06201C25.5469 7.12342 27.1241 5.54639 29.0625 5.54639ZM53.5088 72.112C54.4603 72.112 55.2344 72.8859 55.2344 73.8372C55.2344 74.1778 54.9572 74.455 54.6162 74.455H25.3837C25.0428 74.455 24.7656 74.1779 24.7656 73.8372C24.7656 72.8859 25.5397 72.112 26.4913 72.112H34.7352C35.3825 72.112 35.907 71.5873 35.907 70.9401C35.907 70.2929 35.3825 69.7683 34.7352 69.7683H32.2389L33.8198 64.9111H46.1803L47.7612 69.7683H40.143C39.4956 69.7683 38.9711 70.2929 38.9711 70.9401C38.9711 71.5873 39.4956 72.112 40.143 72.112H53.5088ZM77.6562 17.2634H23.5938C22.9464 17.2634 22.4219 17.7881 22.4219 18.4353C22.4219 19.0825 22.9464 19.6072 23.5938 19.6072H77.6562V53.194H68.7891C68.1417 53.194 67.6172 53.7187 67.6172 54.3659C67.6172 55.0131 68.1417 55.5378 68.7891 55.5378H77.6562V61.6837C77.6562 62.1709 77.2597 62.5672 76.7723 62.5672H3.22766C2.74031 62.5672 2.34375 62.1708 2.34375 61.6837V55.5378H63.3973C64.0447 55.5378 64.5692 55.0131 64.5692 54.3659C64.5692 53.7187 64.0447 53.194 63.3973 53.194H58.9189C58.063 50.7242 55.9762 48.8262 53.3834 48.2397C53.375 48.2376 53.3666 48.2359 53.358 48.2342L44.4739 46.432C44.3791 45.707 44.3606 44.9861 44.42 44.2248C47.5339 41.6208 49.0505 39.3136 49.0505 37.1819C49.0505 36.9508 49.0411 36.7231 49.0211 36.4905C48.9711 35.9804 48.9428 33.629 48.9527 30.772C48.9606 28.4442 48.0595 26.2536 46.4158 24.6037C44.7705 22.9525 42.5805 22.0428 40.2494 22.0425C40.2489 22.0425 40.2484 22.0425 40.248 22.0425C37.9167 22.0425 35.7264 22.9519 34.0808 24.603C32.4364 26.2528 31.5352 28.4437 31.5431 30.7722C31.553 33.6308 31.5247 35.9842 31.4736 36.507C31.4548 36.7194 31.4453 36.9464 31.4453 37.1817C31.4453 39.3106 32.9572 41.6139 36.0591 44.2104C36.1167 44.9551 36.0959 45.6598 35.9964 46.3939L26.9528 48.2336C26.9444 48.2353 26.9361 48.237 26.9277 48.239C24.3352 48.8261 22.2489 50.7243 21.3934 53.194H2.34375V19.6072H18.2302C18.8775 19.6072 19.402 19.0825 19.402 18.4353C19.402 17.7881 18.8775 17.2634 18.2302 17.2634H2.34375V11.1173C2.34375 10.6301 2.74031 10.2339 3.22766 10.2339H23.3209C23.8653 12.9051 26.2327 14.9214 29.0623 14.9214H50.9373C53.767 14.9214 56.1344 12.9051 56.6787 10.2339H76.772C77.2594 10.2339 77.6559 10.6303 77.6559 11.1173V17.2634H77.6562ZM33.8869 30.764C33.8811 29.0633 34.5395 27.4628 35.7408 26.2575C36.9436 25.0508 38.5441 24.3862 40.248 24.3862H40.2491C41.9525 24.3865 43.5531 25.0512 44.7556 26.2581C45.9566 27.4633 46.6147 29.0636 46.6089 30.7639C46.6006 33.1672 46.6173 35.9937 46.6873 36.7044C46.7002 36.8561 46.7067 37.0167 46.7067 37.1819C46.7067 38.5903 45.2275 40.5626 42.5394 42.7378C41.8967 43.2603 41.087 43.5479 40.2537 43.5479C40.2512 43.5479 40.2487 43.5479 40.2462 43.5479C39.4069 43.5483 38.6 43.2611 37.952 42.7339C35.2673 40.562 33.7889 38.5901 33.7889 37.1819C33.7889 37.0148 33.7953 36.8569 33.8069 36.7244C33.8784 35.9972 33.8952 33.1687 33.8869 30.764ZM42.1945 47.0594C42.1366 47.1219 42.078 47.1847 42.0189 47.2473C41.5064 47.7934 40.882 48.0939 40.2537 48.0939C40.2505 48.0939 40.247 48.0939 40.2436 48.0939C39.6205 48.0939 38.9947 47.7926 38.4791 47.2428C38.41 47.1695 38.3416 47.0961 38.2739 47.0228C38.3498 46.545 38.3972 46.0751 38.4192 45.6051C39.0036 45.7928 39.6164 45.8915 40.235 45.8915H40.2584C40.8703 45.8915 41.4758 45.7956 42.0531 45.6133C42.0727 46.0967 42.1186 46.5759 42.1945 47.0594ZM36.5995 48.6629C36.6569 48.7248 36.7136 48.7869 36.7717 48.8483C37.733 49.8734 38.9655 50.4375 40.2373 50.4375H40.2602C41.5366 50.4375 42.7678 49.8744 43.7261 48.8531C43.7739 48.8025 43.8206 48.7514 43.868 48.7004L52.8788 50.5284C54.3925 50.8747 55.6564 51.8654 56.3692 53.194H23.9431C24.6558 51.8651 25.9195 50.874 27.4334 50.5276L36.5995 48.6629Z" fill="#086CF9"/>
</g>
<defs>
<clipPath id="clip0_47446_192">
<rect width="80" height="80" fill="white"/>
</clipPath>
</defs>
</svg>
